PathFileType  4	(X/Y/Z) C:\Users\antoi\Documents\MyRepositories\mobilecap\ResultsAnalysis
DataRate	CameraRate	NumFrames	NumMarkers	Units	OrigDataRate	OrigDataStartFrame	OrigNumFrames
100.0	100.0	4	51	mm	100.0	1	242
Frame#	Time	r_knee			r_shank_antsup			r_ankle			r_calc			r_5meta			r_toe			L_knee			L_shank_antsup			L_ankle			L_calc			L_5meta			L_toe			r_sh2			r_sh3			r_sh4			L_sh2			L_sh3			r_thigh1			r_thigh2			r_thigh3			r_thigh4			r_thigh5			L_thigh1			L_thigh2			L_thigh3			L_thigh4			r.ASIS			r.PSIS			L.ASIS			L.PSIS			C7			R_Shoulder			L_Shoulder			R_Sternum			L_Sternum			R_humerus			R_elbow_med			R_elbow_lat			R_forearm			R_wrist_radius			R_wrist_ulna			L_humerus			L_elbow_med			L_elbow_lat			L_forearm			L_wrist_radius			L_wrist_ulna			R_HJC			L_HJC			R_HJC_reg			L_HJC_reg			
		X1	Y1	Z1	X2	Y2	Z2	X3	Y3	Z3	X4	Y4	Z4	X5	Y5	Z5	X6	Y6	Z6	X7	Y7	Z7	X8	Y8	Z8	X9	Y9	Z9	X10	Y10	Z10	X11	Y11	Z11	X12	Y12	Z12	X13	Y13	Z13	X14	Y14	Z14	X15	Y15	Z15	X16	Y16	Z16	X17	Y17	Z17	X18	Y18	Z18	X19	Y19	Z19	X20	Y20	Z20	X21	Y21	Z21	X22	Y22	Z22	X23	Y23	Z23	X24	Y24	Z24	X25	Y25	Z25	X26	Y26	Z26	X27	Y27	Z27	X28	Y28	Z28	X29	Y29	Z29	X30	Y30	Z30	X31	Y31	Z31	X32	Y32	Z32	X33	Y33	Z33	X34	Y34	Z34	X35	Y35	Z35	X36	Y36	Z36	X37	Y37	Z37	X38	Y38	Z38	X39	Y39	Z39	X40	Y40	Z40	X41	Y41	Z41	X42	Y42	Z42	X43	Y43	Z43	X44	Y44	Z44	X45	Y45	Z45	X46	Y46	Z46	X47	Y47	Z47	X48	Y48	Z48	X49	Y49	Z49	X50	Y50	Z50	X51	Y51	Z51	

1	0.00000000	-1210.87268	806.22628	-438.20098	-1185.19684	708.95755	-444.47658	-1290.75692	401.01964	-459.43705	-1353.69604	365.85657	-506.92657	-1171.56934	350.91182	-420.20650	-1139.04775	378.95572	-475.13177	-1216.82717	811.79085	-723.89863	-1188.94484	727.88197	-712.24853	-1276.25659	404.60068	-709.06267	-1349.45618	361.36496	-667.51501	-1169.47461	350.97447	-745.47013	-1125.08610	374.44939	-686.93621	-1205.02548	597.22524	-448.40647	-1248.33909	718.82670	-404.09657	-1274.12742	606.04817	-404.52752	-1266.98244	748.57616	-753.49957	-1283.74873	627.41015	-757.87161	-1142.00892	1083.65619	-412.18561	-1140.68375	973.18102	-428.58865	-1192.05479	944.39592	-395.24984	-1253.96728	1075.63658	-394.12414	-1244.95594	961.08269	-410.88977	-1127.48099	1055.86241	-737.16716	-1125.78949	917.15848	-716.25394	-1231.96135	1050.09137	-777.28980	-1231.22165	918.70351	-745.58268	-1103.82844	1271.63344	-456.23948	-1307.83012	1325.92322	-535.97755	-1106.35971	1274.81236	-710.61507	-1306.40559	1325.88087	-630.50285	-1257.22413	1776.59401	-577.57993	-1182.95097	1746.71933	-410.62071	-1169.83904	1747.09285	-730.14896	-1127.58605	1703.38324	-550.04766	-1129.77254	1705.87857	-595.54139	-1142.17386	1612.84807	-366.25092	-1236.95119	1418.99963	-399.75746	-1211.89546	1426.72669	-342.12510	-1160.01181	1357.96058	-325.50498	-1119.01245	1192.38628	-357.47098	-1148.75372	1194.15724	-317.19544	-1133.06654	1606.46473	-784.75967	-1221.16558	1413.39054	-752.84719	-1184.25910	1422.56187	-820.14057	-1135.56218	1362.54345	-823.89919	-1104.41843	1185.55757	-800.31049	-1130.25238	1192.31474	-845.23720	-1196.26786	1193.57921	-482.61910	-1195.87600	1196.34512	-672.16103	-1186.79283	1204.30506	-493.36260	-1184.26267	1204.22984	-661.25283	
2	0.01000000	-1209.59014	806.08213	-438.52723	-1183.78154	708.41685	-444.75496	-1290.80652	401.42783	-459.50709	-1353.75691	365.78014	-506.85440	-1171.70767	351.01823	-420.15200	-1139.07481	378.96989	-475.16356	-1216.56050	811.69123	-723.88428	-1188.50906	727.64906	-712.25210	-1276.28449	404.54136	-709.06891	-1349.50092	361.26114	-667.45669	-1169.49652	350.95353	-745.47263	-1125.12133	374.43009	-686.93605	-1204.04287	596.81525	-448.77796	-1246.84953	718.36743	-404.26551	-1273.63729	605.81645	-404.64050	-1266.67854	748.45155	-753.35501	-1283.44017	627.42103	-758.02381	-1141.83567	1083.59653	-411.77120	-1140.04012	973.18857	-428.63018	-1191.37236	943.53979	-396.46644	-1253.83740	1075.21461	-394.24290	-1244.17859	960.45852	-411.25583	-1128.03356	1055.90160	-737.62064	-1125.65360	917.06597	-716.25723	-1231.86012	1049.99179	-777.17560	-1231.06417	918.54120	-745.40439	-1103.81295	1271.45894	-456.23275	-1307.57065	1325.94846	-535.81300	-1106.24669	1274.66847	-710.31933	-1306.12316	1326.00347	-630.45848	-1255.96754	1776.58933	-577.44783	-1181.83062	1746.51378	-410.43982	-1168.70531	1746.92575	-730.04258	-1126.52784	1703.02079	-549.73613	-1128.73563	1705.34629	-595.53778	-1141.45217	1612.71618	-365.84837	-1237.24783	1419.19882	-399.47342	-1212.28490	1427.00481	-341.75011	-1160.92246	1357.83557	-324.55023	-1120.67752	1192.00308	-356.32240	-1150.49150	1193.96024	-316.18374	-1132.57698	1606.19801	-784.93651	-1220.88263	1413.64639	-752.57519	-1184.83696	1422.67284	-820.66676	-1136.42780	1362.37319	-824.83994	-1106.40911	1185.11664	-802.14837	-1132.61737	1192.22963	-846.67900	-1196.27287	1193.49993	-482.51311	-1195.81772	1196.30985	-672.05426	-1186.74823	1204.19395	-493.39601	-1184.18351	1204.29127	-661.09454	
3	0.02000000	-1208.53501	805.93020	-438.86154	-1182.41539	707.91263	-445.07088	-1290.82949	401.53683	-459.52638	-1353.76690	365.77906	-506.96106	-1171.75645	351.04825	-420.12768	-1139.10195	378.99195	-475.17254	-1216.29997	811.54697	-723.82683	-1188.19312	727.45818	-712.24611	-1276.31549	404.48611	-709.08688	-1349.52556	361.18307	-667.44299	-1169.51055	350.93191	-745.48202	-1125.16995	374.43254	-686.95532	-1203.11898	596.36416	-449.01406	-1245.39340	718.05451	-404.46003	-1272.72902	605.48826	-404.67438	-1266.31354	748.37590	-753.26818	-1283.11681	627.44051	-758.23411	-1141.66725	1083.48062	-411.45280	-1139.34980	973.11647	-428.72057	-1190.81813	942.92523	-397.04315	-1253.70420	1074.61864	-394.65036	-1243.53564	960.04295	-411.34829	-1128.28862	1055.85861	-737.85498	-1125.48234	917.02337	-716.32396	-1231.79859	1049.92801	-777.13802	-1230.93102	918.45760	-745.34470	-1103.79791	1271.19613	-456.16925	-1307.36228	1325.96833	-535.78360	-1106.12415	1274.53461	-710.12685	-1305.90704	1326.08728	-630.38501	-1254.68109	1776.62584	-577.35974	-1180.57889	1746.42712	-410.13487	-1167.53356	1746.73223	-729.90459	-1125.43811	1702.57657	-549.62897	-1127.59217	1704.89439	-595.36384	-1140.73735	1612.52968	-365.45705	-1237.57435	1419.43107	-399.06388	-1212.71331	1427.29699	-341.24248	-1161.80978	1357.73581	-323.92361	-1122.40503	1191.65915	-355.09296	-1152.42292	1193.94309	-314.99529	-1132.12593	1605.90665	-785.09583	-1221.13770	1413.78921	-752.71686	-1185.49852	1422.78928	-821.13472	-1137.45696	1362.15428	-825.71428	-1108.50895	1184.69081	-803.90524	-1134.93438	1192.16668	-848.25672	-1196.31812	1193.36317	-482.47266	-1195.77557	1196.26796	-672.01212	-1186.74658	1204.06912	-493.36509	-1184.16816	1204.28000	-660.97870	
4	0.03000000	-1207.88740	805.59259	-439.03152	-1181.05526	707.41026	-445.28872	-1290.81366	401.66292	-459.45736	-1353.75176	365.79469	-507.10352	-1171.74470	351.02319	-420.13002	-1139.14133	379.03244	-475.17100	-1215.97456	811.43517	-723.83653	-1187.88684	727.31481	-712.24546	-1276.34588	404.42982	-709.10519	-1349.52381	361.15347	-667.47442	-1169.51942	350.91300	-745.49955	-1125.18560	374.44239	-686.98921	-1202.26751	595.95166	-449.16310	-1243.92285	717.82301	-404.65593	-1271.63688	605.13713	-404.65878	-1265.85288	748.33790	-753.28415	-1282.79648	627.46824	-758.46037	-1141.51969	1083.34743	-411.25646	-1138.65650	973.02392	-428.69803	-1190.42997	942.53636	-397.09351	-1253.62511	1073.96908	-395.11833	-1243.01447	959.69330	-411.41114	-1128.24491	1055.76058	-737.91383	-1125.31131	917.01703	-716.53852	-1231.76245	1049.85077	-777.07878	-1230.82551	918.42634	-745.38963	-1103.76198	1270.84392	-456.03682	-1307.17289	1325.97437	-535.76224	-1105.97943	1274.40439	-710.04199	-1305.70979	1326.16150	-630.26114	-1253.31059	1776.67563	-577.24894	-1179.24361	1746.37102	-409.87539	-1166.24585	1746.53823	-729.70107	-1124.26764	1702.09639	-549.60946	-1126.27674	1704.48239	-595.13270	-1139.98872	1612.28140	-365.10401	-1237.92571	1419.60071	-398.68259	-1213.15208	1427.56309	-340.77457	-1162.74284	1357.78344	-323.24993	-1124.26199	1191.33861	-353.73981	-1154.46394	1193.99978	-313.69712	-1131.66189	1605.60758	-785.25613	-1221.94260	1413.83410	-753.34269	-1186.26270	1422.94135	-821.61442	-1138.64899	1361.92571	-826.60899	-1110.77334	1184.28719	-805.70763	-1137.30366	1192.14354	-850.12797	-1196.36726	1193.16444	-482.46785	-1195.74675	1196.22814	-672.00456	-1186.76895	1203.87125	-493.29933	-1184.17330	1204.20327	-660.94521	
